<?xml version="1.0" standalone="no"?>
<!DOCTYPE svg PUBLIC "-//W3C//DTD SVG 20010904//EN"
 "http://www.w3.org/TR/2001/REC-SVG-20010904/DTD/svg10.dtd">
<svg version="1.0" xmlns="http://www.w3.org/2000/svg"
 width="1500.000000pt" height="1500.000000pt" viewBox="0 0 1500.000000 1500.000000"
 preserveAspectRatio="xMidYMid meet">

<g transform="translate(0.000000,1500.000000) scale(0.100000,-0.100000)"
fill="#000000" stroke="none">
<path d="M0 11303 c0 -2033 2 -3694 4 -3692 2 2 16 54 31 114 57 229 107 352
161 394 42 33 105 29 142 -9 54 -53 77 -144 136 -545 63 -416 111 -645 136
-645 12 0 55 189 79 345 11 72 41 290 66 485 73 572 94 670 155 733 41 40 72
47 118 23 84 -44 119 -234 217 -1201 28 -275 75 -678 80 -683 9 -10 45 317
105 958 75 811 104 1061 141 1245 35 171 71 224 145 212 20 -4 45 -14 55 -23
65 -59 108 -400 189 -1529 57 -787 96 -1254 105 -1264 3 -2 5 4 5 15 0 11 7
98 15 194 20 241 28 360 80 1185 97 1546 125 1815 197 1892 31 33 91 32 123
-3 14 -15 29 -43 35 -63 46 -172 87 -694 165 -2081 45 -803 89 -1467 98 -1476
2 -3 7 40 10 93 31 480 50 797 72 1198 119 2224 152 2572 244 2642 9 7 32 13
52 13 75 0 107 -68 133 -290 31 -253 66 -813 101 -1595 8 -187 22 -495 30
-685 24 -548 54 -1136 70 -1380 8 -124 15 -236 16 -250 1 -54 16 15 23 105 42
586 57 857 141 2465 32 611 71 1230 91 1425 16 163 29 235 50 277 36 71 127
61 160 -17 38 -92 73 -520 124 -1505 96 -1860 130 -2471 139 -2505 8 -28 9
-27 10 15 1 25 10 191 21 370 11 179 33 582 50 895 79 1483 114 1980 161 2306
27 192 50 248 108 270 45 18 87 -6 115 -64 63 -131 107 -629 171 -1952 29
-617 42 -858 61 -1206 7 -146 14 -276 14 -289 0 -13 2 -21 4 -19 5 5 30 307
46 559 6 91 17 262 25 380 8 118 22 319 30 445 79 1157 124 1567 183 1667 29
49 91 62 135 28 74 -59 108 -302 172 -1245 87 -1269 121 -1695 140 -1713 3 -3
5 -1 5 4 0 5 7 66 15 135 18 153 57 594 85 944 65 832 108 1169 162 1283 34
72 111 94 162 47 74 -69 105 -239 166 -905 65 -718 111 -1070 140 -1070 19 0
87 310 160 730 72 414 111 573 165 679 31 61 55 82 106 88 131 18 196 -134
294 -682 91 -517 149 -795 166 -795 5 0 9 6 9 13 0 6 7 62 15 122 8 61 26 259
40 440 43 565 67 725 121 825 62 114 190 104 254 -20 34 -66 60 -175 95 -405
35 -224 60 -341 76 -350 14 -9 58 149 94 335 72 376 96 456 150 498 41 33 96
29 139 -8 74 -66 111 -262 151 -805 20 -270 44 -542 51 -579 5 -21 9 -25 14
-15 15 28 81 451 125 809 95 765 133 973 196 1064 38 55 85 69 138 41 92 -47
130 -305 226 -1530 27 -348 81 -884 90 -893 14 -15 58 504 115 1358 85 1280
117 1536 197 1600 29 22 60 25 96 9 102 -47 128 -282 282 -2604 25 -365 41
-535 44 -455 1 19 6 108 11 198 9 154 31 580 65 1292 27 562 43 840 71 1215
42 589 77 767 154 793 59 21 110 -12 134 -87 55 -168 102 -734 176 -2121 60
-1141 93 -1674 101 -1653 3 10 9 74 12 143 4 69 24 451 46 850 48 861 56 1027
76 1435 34 679 79 1328 106 1494 17 111 51 161 107 161 77 0 99 -58 127 -329
29 -289 54 -710 135 -2281 49 -933 95 -1665 109 -1710 6 -18 10 3 14 70 19
263 39 647 67 1245 96 2085 113 2380 156 2670 17 116 28 150 62 188 47 51 126
29 153 -41 58 -148 102 -689 184 -2217 34 -645 43 -792 65 -1150 30 -476 33
-516 37 -512 9 9 63 827 108 1647 62 1110 110 1729 147 1879 21 88 51 121 108
121 69 0 98 -57 124 -237 39 -275 58 -514 131 -1678 52 -837 61 -965 80 -1190
8 -93 15 -178 15 -189 0 -11 2 -17 5 -15 8 8 46 444 75 854 105 1488 148 1875
219 1939 29 26 86 32 117 11 84 -55 112 -243 249 -1700 35 -369 71 -694 79
-702 7 -7 46 336 106 922 53 524 96 807 136 890 52 111 157 111 208 0 36 -77
61 -221 116 -647 28 -216 60 -451 71 -523 23 -152 68 -345 80 -345 23 0 75
242 124 575 57 398 81 510 122 582 28 51 48 63 104 63 90 0 141 -95 224 -415
25 -99 48 -184 50 -190 2 -5 4 1672 4 3728 l1 3737 -7500 0 -7500 0 0 -3697z"/>
<path d="M3142 9140 c-15 -180 -39 -529 -52 -760 -33 -570 -42 -740 -65 -1160
-59 -1107 -96 -1606 -130 -1788 -15 -76 -44 -136 -71 -146 -35 -14 -81 -6
-103 18 -69 73 -101 422 -201 2176 -33 574 -50 848 -70 1145 -11 154 -20 293
-21 310 0 26 -2 27 -9 10 -11 -24 -45 -490 -105 -1464 -82 -1313 -116 -1648
-176 -1732 -41 -59 -124 -46 -158 25 -46 95 -92 503 -151 1321 -34 482 -83
1108 -100 1288 -11 114 -20 218 -20 230 -1 17 -2 19 -9 7 -12 -19 -51 -371
-96 -860 -108 -1175 -144 -1420 -216 -1493 -25 -25 -35 -29 -66 -24 -117 19
-139 121 -243 1122 -49 478 -89 807 -99 818 -10 10 -8 24 -71 -468 -76 -585
-110 -768 -166 -882 -36 -74 -74 -103 -133 -103 -138 0 -195 152 -286 765 -39
267 -62 406 -69 412 -6 7 -39 -106 -101 -347 -62 -241 -86 -316 -126 -389
l-29 -55 0 -3558 0 -3558 7500 0 7500 0 0 3546 0 3546 -21 29 c-54 76 -81 158
-189 568 -28 107 -55 201 -59 209 -10 18 -28 -78 -71 -368 -78 -529 -124 -701
-209 -771 -28 -23 -45 -29 -83 -29 -145 0 -192 158 -297 986 -60 464 -62 478
-71 467 -11 -11 -53 -358 -100 -818 -101 -986 -130 -1120 -248 -1120 -92 0
-122 81 -172 472 -23 180 -53 469 -75 718 -57 643 -111 1159 -124 1183 -13 24
-46 -366 -141 -1653 -56 -759 -96 -1098 -141 -1191 -33 -69 -102 -85 -149 -34
-69 74 -98 351 -190 1825 -59 948 -88 1353 -99 1380 -5 12 -10 -16 -15 -80
-34 -491 -42 -618 -91 -1470 -45 -777 -57 -974 -75 -1225 -25 -352 -38 -489
-56 -625 -29 -209 -54 -265 -121 -265 -49 0 -72 16 -93 63 -50 114 -93 666
-180 2332 -30 568 -70 1203 -97 1529 -8 101 -18 75 -27 -69 -33 -558 -45 -793
-71 -1375 -96 -2163 -125 -2563 -199 -2675 -21 -32 -74 -42 -114 -21 -56 29
-83 142 -116 491 -21 218 -52 653 -71 990 -8 154 -20 359 -25 455 -6 96 -19
351 -30 565 -55 1096 -86 1624 -94 1633 -3 3 -6 -12 -6 -34 0 -21 -7 -151 -15
-289 -23 -398 -41 -734 -75 -1445 -10 -202 -27 -540 -50 -970 -38 -709 -80
-1162 -115 -1246 -36 -86 -134 -85 -170 2 -44 107 -79 546 -155 1984 -52 982
-78 1401 -105 1745 -24 303 -27 326 -36 285 -17 -84 -68 -910 -114 -1870 -63
-1314 -93 -1738 -129 -1824 -37 -88 -134 -88 -171 0 -41 98 -81 545 -160 1784
-37 571 -80 1139 -105 1385 -5 50 -10 101 -11 115 0 23 -1 23 -9 5 -13 -28
-55 -568 -105 -1345 -27 -416 -68 -920 -91 -1110 -40 -333 -86 -437 -185 -415
-109 24 -145 216 -224 1170 -72 884 -114 1307 -129 1323 -3 3 -8 -1 -10 -9
-10 -32 -59 -379 -101 -719 -123 -986 -173 -1170 -318 -1170 -23 0 -46 9 -65
24 -56 48 -80 170 -112 575 -49 610 -75 851 -89 851 -4 0 -15 -46 -25 -102
-85 -474 -130 -603 -229 -655 -47 -24 -111 -13 -152 27 -63 61 -87 141 -134
451 -34 220 -59 339 -71 339 -22 0 -51 -229 -85 -685 -45 -598 -72 -742 -151
-804 -36 -28 -96 -28 -136 1 -38 26 -89 133 -117 243 -25 100 -66 308 -131
667 -49 275 -90 470 -110 525 -22 60 -21 59 -32 33 -22 -58 -70 -285 -123
-580 -116 -656 -162 -819 -251 -889 -39 -30 -103 -29 -142 4 -93 78 -129 274
-207 1120 -36 383 -59 608 -74 700 -6 41 -9 46 -14 25 -16 -65 -56 -487 -127
-1355 -72 -883 -112 -1086 -219 -1110 -74 -16 -121 43 -150 190 -46 231 -71
521 -156 1780 -36 537 -64 877 -75 900 -8 18 -9 18 -9 -5 -1 -14 -6 -65 -11
-115 -27 -260 -44 -491 -120 -1620 -82 -1217 -108 -1480 -154 -1561 -36 -65
-105 -71 -147 -14 -49 66 -75 403 -144 1840 -51 1069 -102 1890 -118 1907 -9
8 -37 -358 -77 -972 -6 -88 -33 -578 -60 -1090 -81 -1501 -110 -1871 -156
-1981 -35 -85 -134 -84 -169 0 -40 96 -82 606 -135 1626 -6 107 -21 420 -35
695 -33 667 -53 1055 -65 1255 -5 91 -12 220 -16 288 -4 67 -9 120 -11 118 -6
-6 -35 -501 -88 -1526 -98 -1885 -138 -2391 -201 -2549 -16 -41 -54 -71 -89
-71 -34 0 -73 30 -88 67 -55 138 -92 617 -152 1978 -64 1430 -100 2119 -114
2165 -5 16 -11 -24 -19 -120z m7116 -4690 c40 -5 114 -20 163 -32 l89 -22 0
-57 c0 -82 -20 -463 -25 -467 -2 -2 -23 12 -47 31 -95 78 -225 99 -316 53 -91
-47 -159 -143 -169 -241 -11 -107 52 -225 141 -266 76 -35 246 -18 363 36 31
14 57 25 60 25 3 0 2 -12 -1 -27 -3 -16 -13 -111 -21 -213 -8 -102 -18 -203
-21 -226 l-6 -41 -96 -19 c-145 -28 -382 -27 -477 3 -198 62 -351 234 -421
473 -29 99 -27 318 5 420 74 241 220 423 411 516 121 58 220 73 368 54z m-835
-57 c7 -11 -19 -278 -58 -598 -45 -372 -62 -520 -79 -704 -8 -84 -16 -154 -18
-156 -2 -1 -70 -12 -153 -24 -82 -12 -165 -24 -184 -28 l-34 -6 7 114 c12 198
36 467 61 674 13 110 32 310 41 444 11 142 23 245 29 247 9 3 325 40 367 43 9
1 19 -2 21 -6z m-483 -80 c0 -16 -5 -117 -12 -225 -13 -225 1 -202 -129 -213
-42 -4 -82 -10 -88 -14 -7 -5 -16 -50 -21 -107 -5 -54 -23 -252 -40 -439 -17
-187 -34 -369 -38 -405 l-7 -65 -200 -22 c-110 -12 -202 -20 -204 -18 -5 6 42
538 74 836 8 75 15 149 15 165 l0 29 -102 -7 c-57 -3 -105 -5 -107 -2 -2 2 1
36 7 76 35 236 54 353 58 357 5 5 692 78 757 80 34 1 37 -1 37 -26z m-946 -80
l69 -6 -7 -101 c-7 -105 -19 -202 -37 -319 l-11 -69 -22 21 c-55 51 -166 66
-242 32 -173 -79 -268 -327 -187 -490 23 -46 37 -60 77 -80 46 -23 52 -24 110
-12 76 15 153 50 219 98 l50 37 -6 -85 c-4 -46 -7 -169 -8 -272 l-1 -189 -45
-20 c-130 -58 -377 -77 -491 -39 -181 61 -315 219 -373 441 -6 25 -12 88 -12
140 0 346 262 750 564 871 112 44 210 56 353 42z m-1068 -232 c53 -24 109 -90
135 -160 58 -156 -17 -439 -156 -589 -30 -33 -55 -62 -55 -65 0 -4 52 -88 117
-189 148 -233 173 -275 166 -282 -4 -3 -20 -6 -36 -6 -42 0 -224 -28 -336 -51
-52 -10 -99 -19 -106 -19 -6 0 -26 39 -45 88 -58 155 -124 307 -127 292 -1 -8
-9 -94 -18 -190 -9 -96 -18 -191 -22 -211 l-5 -37 -102 -26 c-183 -48 -298
-66 -508 -77 -114 -6 -213 -9 -221 -6 -10 4 -16 34 -21 108 -4 57 -8 105 -10
106 -6 6 -279 -26 -286 -34 -4 -4 -22 -48 -40 -98 -19 -49 -34 -91 -35 -93 -3
-4 -345 -32 -393 -32 l-42 0 56 112 c61 121 157 293 239 428 81 133 109 186
186 356 39 88 89 193 110 235 l38 76 63 12 c35 7 126 28 202 47 77 19 142 31
146 27 4 -4 15 -53 24 -108 10 -55 31 -174 47 -265 39 -220 95 -564 110 -672
7 -49 15 -88 19 -88 4 0 10 35 14 78 7 72 114 937 135 1086 5 37 12 71 16 74
3 3 67 24 143 47 148 45 352 109 417 131 57 19 133 17 181 -5z m3715 -1157
c115 -34 259 -123 259 -160 0 -12 -108 -323 -116 -333 -2 -2 -25 16 -51 39
-115 102 -233 107 -233 10 0 -46 8 -53 122 -100 175 -72 269 -220 269 -425 0
-157 -51 -287 -150 -384 -109 -109 -241 -143 -406 -106 -78 17 -240 92 -269
123 -13 15 -8 38 52 220 l67 202 50 -55 c64 -72 157 -121 210 -111 45 9 75 41
75 81 0 47 -18 63 -110 95 -103 37 -153 70 -203 135 -57 75 -81 165 -75 279
13 239 150 442 331 491 69 18 113 18 178 -1z m-990 -189 c24 -102 46 -185 49
-185 3 0 29 73 59 163 30 89 59 172 64 185 10 22 13 22 197 22 103 0 189 -2
192 -5 3 -3 -37 -106 -89 -228 -52 -122 -112 -262 -132 -312 -21 -49 -61 -144
-89 -210 l-51 -120 -21 -225 c-11 -124 -24 -253 -27 -288 l-6 -63 -176 7 c-97
3 -178 8 -180 10 -2 2 9 131 24 286 l28 283 -81 245 c-144 437 -192 593 -187
598 3 3 45 7 93 10 48 2 92 5 97 7 6 2 51 4 101 4 l91 1 44 -185z m-476 103
c3 -35 5 -121 3 -193 l-3 -130 -142 -20 c-78 -11 -144 -23 -147 -26 -11 -10
-26 -113 -19 -120 5 -4 53 -1 108 6 55 8 106 15 114 15 11 0 13 -24 7 -137 -4
-76 -9 -157 -12 -179 l-6 -42 -116 -7 c-69 -4 -120 -12 -124 -19 -4 -6 -8 -37
-8 -69 l0 -57 185 6 c156 6 185 5 185 -7 -1 -43 -58 -371 -66 -378 -5 -5 -165
-12 -356 -16 l-348 -6 0 23 c0 60 32 487 46 613 12 114 51 369 102 675 l7 44
105 13 c79 10 412 61 472 72 3 0 9 -27 13 -61z m-681 -70 c-74 -144 -248 -433
-342 -568 l-45 -65 18 -50 c14 -40 100 -244 251 -592 8 -18 10 -34 6 -36 -4
-3 -100 -8 -213 -11 -194 -7 -207 -6 -213 11 -55 141 -146 398 -146 412 0 6
-4 11 -8 11 -4 0 -16 -100 -26 -222 -10 -123 -19 -224 -20 -225 -1 -2 -82 -6
-179 -10 l-177 -8 0 47 c0 77 29 406 45 505 8 51 28 144 45 209 29 112 53 262
65 409 10 118 13 124 48 129 18 3 97 8 176 11 l144 7 -7 -64 c-4 -35 -16 -135
-27 -222 -10 -87 -18 -160 -16 -162 1 -2 56 104 121 234 66 130 120 238 121
240 3 4 308 40 353 41 l43 1 -17 -32z m-1004 -68 c0 -77 -48 -404 -75 -515
-50 -204 -62 -284 -82 -542 l-18 -231 -150 -7 c-219 -10 -202 -16 -245 90 -77
188 -187 461 -194 479 -3 10 -8 17 -10 15 -5 -5 -41 -309 -57 -474 -6 -66 -13
-123 -15 -127 -3 -5 -84 -8 -180 -8 l-174 0 5 73 c15 196 40 388 90 707 13 85
31 204 40 264 8 60 16 110 17 111 2 1 82 21 178 44 96 24 180 45 187 48 7 2
19 -12 29 -34 44 -103 108 -288 144 -420 22 -80 42 -148 44 -151 6 -5 39 107
65 218 17 72 51 363 51 436 0 29 12 31 203 33 93 0 147 -3 147 -9z m-1467
-243 c149 -73 267 -249 284 -422 7 -79 -23 -202 -77 -312 -185 -375 -580 -498
-814 -253 -157 164 -177 395 -57 645 69 145 160 245 284 315 83 46 139 60 238
57 70 -2 96 -8 142 -30z m-793 -557 l0 -540 -161 0 -161 0 7 123 c4 67 13 163
20 212 7 50 11 91 10 93 -5 5 -125 -158 -205 -278 -46 -69 -86 -129 -90 -133
-8 -10 -71 184 -101 308 -11 50 -22 92 -24 93 -4 5 -101 -291 -117 -357 -6
-25 -15 -52 -21 -58 -14 -19 -307 -18 -307 0 0 7 33 112 74 232 123 366 235
713 241 749 l7 34 76 6 c43 4 98 9 124 12 35 4 49 2 52 -8 2 -7 12 -42 22 -78
23 -86 95 -280 103 -280 3 0 19 29 34 64 30 67 160 291 182 315 11 12 104 25
203 30 l32 1 0 -540z"/>
<path d="M6570 3617 l-35 -12 -12 -95 c-6 -52 -12 -107 -12 -122 l-1 -27 48
14 c78 23 132 100 132 188 0 33 -32 67 -62 66 -13 0 -39 -5 -58 -12z"/>
<path d="M5531 3210 c-18 -52 -48 -128 -67 -169 -19 -41 -34 -75 -34 -76 0 -1
33 3 73 9 l72 11 3 120 c1 67 -1 138 -6 160 l-8 40 -33 -95z"/>
<path d="M5754 2040 c-125 -63 -183 -226 -120 -334 38 -64 87 -83 160 -62 98
29 173 118 183 220 14 138 -108 235 -223 176z"/>
</g>
</svg>
